<svg width="20" height="21" viewBox="0 0 20 21" fill="none" xmlns="http://www.w3.org/2000/svg">
<path d="M19.527 17.7591L16.1561 1.73253C16.1125 1.52295 16.0279 1.32405 15.9072 1.14725C15.7865 0.970454 15.6321 0.819247 15.4528 0.702316C15.2735 0.585386 15.0728 0.505037 14.8624 0.465886C14.6519 0.426734 14.4358 0.429551 14.2264 0.474176L9.47227 1.49589C9.05175 1.58797 8.68459 1.84236 8.45065 2.20373C8.21671 2.5651 8.13491 3.00422 8.22305 3.42558L11.5939 19.4521C11.669 19.8178 11.8677 20.1464 12.1566 20.3828C12.4456 20.6192 12.807 20.7489 13.1803 20.7501C13.2957 20.75 13.4108 20.7377 13.5236 20.7135L18.2777 19.6918C18.6988 19.5995 19.0663 19.3446 19.3003 18.9827C19.5342 18.6207 19.6157 18.1809 19.527 17.7591ZM9.8125 3.09347C9.8125 3.08738 9.8125 3.08433 9.8125 3.08433L14.5656 2.06871L14.9038 3.6805L10.1507 4.70324L9.8125 3.09347ZM10.8281 7.9055L10.4879 6.29066L15.243 5.26894L15.5823 6.88378L10.8281 7.9055ZM17.9375 18.1034L13.1844 19.119L12.8462 17.5072L17.5993 16.4845L17.9375 18.0943C17.9375 18.1003 17.9375 18.1034 17.9375 18.1034ZM6.5625 1.25011H1.6875C1.25652 1.25011 0.843198 1.42132 0.538451 1.72606C0.233705 2.03081 0.0625 2.44414 0.0625 2.87511V19.1251C0.0625 19.5561 0.233705 19.9694 0.538451 20.2742C0.843198 20.5789 1.25652 20.7501 1.6875 20.7501H6.5625C6.99348 20.7501 7.4068 20.5789 7.71155 20.2742C8.01629 19.9694 8.1875 19.5561 8.1875 19.1251V2.87511C8.1875 2.44414 8.01629 2.03081 7.71155 1.72606C7.4068 1.42132 6.99348 1.25011 6.5625 1.25011ZM1.6875 2.87511H6.5625V4.50011H1.6875V2.87511ZM6.5625 19.1251H1.6875V17.5001H6.5625V19.1251Z" fill="#177A9C"/>
</svg>
