<svg width="20" height="21" viewBox="0 0 20 21" fill="none" xmlns="http://www.w3.org/2000/svg">
<path d="M6.5625 1.45294H1.6875C1.3104 1.45294 0.948736 1.60275 0.682083 1.8694C0.415429 2.13605 0.265625 2.49771 0.265625 2.87482V19.1248C0.265625 19.5019 0.415429 19.8636 0.682083 20.1302C0.948736 20.3969 1.3104 20.5467 1.6875 20.5467H6.5625C6.74922 20.5467 6.93412 20.5099 7.10663 20.4385C7.27914 20.367 7.43588 20.2623 7.56792 20.1302C7.69995 19.9982 7.80469 19.8415 7.87614 19.6689C7.9476 19.4964 7.98438 19.3115 7.98438 19.1248V2.87482C7.98438 2.6881 7.9476 2.5032 7.87614 2.33069C7.80469 2.15818 7.69995 2.00143 7.56792 1.8694C7.43588 1.73737 7.27914 1.63263 7.10663 1.56118C6.93412 1.48972 6.74922 1.45294 6.5625 1.45294ZM1.48438 5.92169H6.76562V16.0779H1.48438V5.92169ZM1.6875 2.67169H6.5625C6.61637 2.67169 6.66804 2.69309 6.70613 2.73119C6.74422 2.76928 6.76562 2.82095 6.76562 2.87482V4.70294H1.48438V2.87482C1.48438 2.82095 1.50578 2.76928 1.54387 2.73119C1.58196 2.69309 1.63363 2.67169 1.6875 2.67169ZM6.5625 19.3279H1.6875C1.63363 19.3279 1.58196 19.3065 1.54387 19.2684C1.50578 19.2304 1.48438 19.1787 1.48438 19.1248V17.2967H6.76562V19.1248C6.76562 19.1787 6.74422 19.2304 6.70613 19.2684C6.66804 19.3065 6.61637 19.3279 6.5625 19.3279ZM19.3289 17.8045L15.958 1.77388C15.92 1.59036 15.8461 1.41618 15.7405 1.26134C15.6349 1.10651 15.4997 0.974075 15.3427 0.871665C15.1858 0.769255 15.0101 0.698888 14.8258 0.664609C14.6416 0.630331 14.4524 0.632818 14.2691 0.671928L9.51492 1.69365C9.14699 1.77452 8.82579 1.99722 8.62101 2.31342C8.41623 2.62961 8.3444 3.0138 8.42109 3.38263L11.792 19.4102C11.8303 19.5944 11.9048 19.7691 12.0111 19.9242C12.1175 20.0794 12.2536 20.2119 12.4115 20.3141C12.64 20.4636 12.9072 20.5434 13.1803 20.5436C13.2828 20.5442 13.385 20.5333 13.485 20.5111L18.2391 19.4904C18.6057 19.4086 18.9254 19.186 19.1292 18.8706C19.3331 18.5552 19.4048 18.1723 19.3289 17.8045ZM10.9185 9.34232L16.0708 8.23529L17.5048 15.0562L12.3516 16.1602L10.9185 9.34232ZM10.2452 6.13701L15.3984 5.02693L15.8199 7.03888L10.6677 8.14591L10.2452 6.13701ZM9.77188 2.88701L14.525 1.8663C14.5392 1.86493 14.5535 1.86493 14.5677 1.8663C14.6056 1.86635 14.6427 1.87766 14.6743 1.8988C14.6976 1.91366 14.7177 1.93312 14.7332 1.956C14.7488 1.97888 14.7595 2.00469 14.7647 2.03185L15.1455 3.84169L9.9943 4.9406L9.61445 3.13482C9.60259 3.08084 9.61245 3.02436 9.64191 2.9776C9.67137 2.93085 9.71806 2.89757 9.77188 2.88497V2.88701ZM17.9791 18.3042L13.225 19.3279C13.1995 19.3336 13.1732 19.3341 13.1476 19.3294C13.1219 19.3246 13.0975 19.3148 13.0757 19.3005C13.0524 19.2857 13.0323 19.2662 13.0168 19.2433C13.0012 19.2204 12.9905 19.1946 12.9853 19.1675L12.6045 17.3576L17.7557 16.2506L18.1406 18.0513C18.1466 18.0784 18.1471 18.1064 18.1422 18.1337C18.1374 18.161 18.1271 18.187 18.1121 18.2103C18.0971 18.2337 18.0776 18.2538 18.0548 18.2695C18.032 18.2853 18.0063 18.2964 17.9791 18.3022V18.3042Z" fill="#727272"/>
</svg>
