<svg width="18" height="18" viewBox="0 0 18 18" fill="none" xmlns="http://www.w3.org/2000/svg">
<path d="M8.1875 1.6875V6.5625C8.1875 6.99348 8.01629 7.4068 7.71155 7.71155C7.4068 8.01629 6.99348 8.1875 6.5625 8.1875H1.6875C1.25652 8.1875 0.843198 8.01629 0.538451 7.71155C0.233705 7.4068 0.0625 6.99348 0.0625 6.5625V1.6875C0.0625 1.25652 0.233705 0.843198 0.538451 0.538451C0.843198 0.233705 1.25652 0.0625 1.6875 0.0625H6.5625C6.99348 0.0625 7.4068 0.233705 7.71155 0.538451C8.01629 0.843198 8.1875 1.25652 8.1875 1.6875ZM16.3125 0.0625H11.4375C11.0065 0.0625 10.5932 0.233705 10.2885 0.538451C9.98371 0.843198 9.8125 1.25652 9.8125 1.6875V6.5625C9.8125 6.99348 9.98371 7.4068 10.2885 7.71155C10.5932 8.01629 11.0065 8.1875 11.4375 8.1875H16.3125C16.7435 8.1875 17.1568 8.01629 17.4615 7.71155C17.7663 7.4068 17.9375 6.99348 17.9375 6.5625V1.6875C17.9375 1.25652 17.7663 0.843198 17.4615 0.538451C17.1568 0.233705 16.7435 0.0625 16.3125 0.0625ZM6.5625 9.8125H1.6875C1.25652 9.8125 0.843198 9.98371 0.538451 10.2885C0.233705 10.5932 0.0625 11.0065 0.0625 11.4375V16.3125C0.0625 16.7435 0.233705 17.1568 0.538451 17.4615C0.843198 17.7663 1.25652 17.9375 1.6875 17.9375H6.5625C6.99348 17.9375 7.4068 17.7663 7.71155 17.4615C8.01629 17.1568 8.1875 16.7435 8.1875 16.3125V11.4375C8.1875 11.0065 8.01629 10.5932 7.71155 10.2885C7.4068 9.98371 6.99348 9.8125 6.5625 9.8125ZM16.3125 9.8125H11.4375C11.0065 9.8125 10.5932 9.98371 10.2885 10.2885C9.98371 10.5932 9.8125 11.0065 9.8125 11.4375V16.3125C9.8125 16.7435 9.98371 17.1568 10.2885 17.4615C10.5932 17.7663 11.0065 17.9375 11.4375 17.9375H16.3125C16.7435 17.9375 17.1568 17.7663 17.4615 17.4615C17.7663 17.1568 17.9375 16.7435 17.9375 16.3125V11.4375C17.9375 11.0065 17.7663 10.5932 17.4615 10.2885C17.1568 9.98371 16.7435 9.8125 16.3125 9.8125Z" fill="#177A9C"/>
</svg>
