<svg width="18" height="18" viewBox="0 0 18 18" fill="none" xmlns="http://www.w3.org/2000/svg">
<path d="M6.5625 0.265625H1.6875C1.3104 0.265625 0.948736 0.415429 0.682083 0.682083C0.415429 0.948736 0.265625 1.3104 0.265625 1.6875V6.5625C0.265625 6.74922 0.302403 6.93412 0.373859 7.10663C0.445315 7.27914 0.550049 7.43588 0.682083 7.56792C0.814116 7.69995 0.970862 7.80469 1.14337 7.87614C1.31588 7.9476 1.50078 7.98438 1.6875 7.98438H6.5625C6.74922 7.98438 6.93412 7.9476 7.10663 7.87614C7.27914 7.80469 7.43588 7.69995 7.56792 7.56792C7.69995 7.43588 7.80469 7.27914 7.87614 7.10663C7.9476 6.93412 7.98438 6.74922 7.98438 6.5625V1.6875C7.98438 1.50078 7.9476 1.31588 7.87614 1.14337C7.80469 0.970862 7.69995 0.814116 7.56792 0.682083C7.43588 0.550049 7.27914 0.445315 7.10663 0.373859C6.93412 0.302403 6.74922 0.265625 6.5625 0.265625ZM6.76562 6.5625C6.76562 6.61637 6.74422 6.66804 6.70613 6.70613C6.66804 6.74422 6.61637 6.76562 6.5625 6.76562H1.6875C1.63363 6.76562 1.58196 6.74422 1.54387 6.70613C1.50578 6.66804 1.48438 6.61637 1.48438 6.5625V1.6875C1.48438 1.63363 1.50578 1.58196 1.54387 1.54387C1.58196 1.50578 1.63363 1.48438 1.6875 1.48438H6.5625C6.61637 1.48438 6.66804 1.50578 6.70613 1.54387C6.74422 1.58196 6.76562 1.63363 6.76562 1.6875V6.5625ZM16.3125 0.265625H11.4375C11.0604 0.265625 10.6987 0.415429 10.4321 0.682083C10.1654 0.948736 10.0156 1.3104 10.0156 1.6875V6.5625C10.0156 6.74922 10.0524 6.93412 10.1239 7.10663C10.1953 7.27914 10.3 7.43588 10.4321 7.56792C10.5641 7.69995 10.7209 7.80469 10.8934 7.87614C11.0659 7.9476 11.2508 7.98438 11.4375 7.98438H16.3125C16.4992 7.98438 16.6841 7.9476 16.8566 7.87614C17.0291 7.80469 17.1859 7.69995 17.3179 7.56792C17.45 7.43588 17.5547 7.27914 17.6261 7.10663C17.6976 6.93412 17.7344 6.74922 17.7344 6.5625V1.6875C17.7344 1.3104 17.5846 0.948736 17.3179 0.682083C17.0513 0.415429 16.6896 0.265625 16.3125 0.265625ZM16.5156 6.5625C16.5156 6.61637 16.4942 6.66804 16.4561 6.70613C16.418 6.74422 16.3664 6.76562 16.3125 6.76562H11.4375C11.3836 6.76562 11.332 6.74422 11.2939 6.70613C11.2558 6.66804 11.2344 6.61637 11.2344 6.5625V1.6875C11.2344 1.63363 11.2558 1.58196 11.2939 1.54387C11.332 1.50578 11.3836 1.48438 11.4375 1.48438H16.3125C16.3664 1.48438 16.418 1.50578 16.4561 1.54387C16.4942 1.58196 16.5156 1.63363 16.5156 1.6875V6.5625ZM6.5625 10.0156H1.6875C1.3104 10.0156 0.948736 10.1654 0.682083 10.4321C0.415429 10.6987 0.265625 11.0604 0.265625 11.4375V16.3125C0.265625 16.6896 0.415429 17.0513 0.682083 17.3179C0.948736 17.5846 1.3104 17.7344 1.6875 17.7344H6.5625C6.74922 17.7344 6.93412 17.6976 7.10663 17.6261C7.27914 17.5547 7.43588 17.45 7.56792 17.3179C7.69995 17.1859 7.80469 17.0291 7.87614 16.8566C7.9476 16.6841 7.98438 16.4992 7.98438 16.3125V11.4375C7.98438 11.2508 7.9476 11.0659 7.87614 10.8934C7.80469 10.7209 7.69995 10.5641 7.56792 10.4321C7.43588 10.3 7.27914 10.1953 7.10663 10.1239C6.93412 10.0524 6.74922 10.0156 6.5625 10.0156ZM6.76562 16.3125C6.76562 16.3664 6.74422 16.418 6.70613 16.4561C6.66804 16.4942 6.61637 16.5156 6.5625 16.5156H1.6875C1.63363 16.5156 1.58196 16.4942 1.54387 16.4561C1.50578 16.418 1.48438 16.3664 1.48438 16.3125V11.4375C1.48438 11.3836 1.50578 11.332 1.54387 11.2939C1.58196 11.2558 1.63363 11.2344 1.6875 11.2344H6.5625C6.61637 11.2344 6.66804 11.2558 6.70613 11.2939C6.74422 11.332 6.76562 11.3836 6.76562 11.4375V16.3125ZM16.3125 10.0156H11.4375C11.0604 10.0156 10.6987 10.1654 10.4321 10.4321C10.1654 10.6987 10.0156 11.0604 10.0156 11.4375V16.3125C10.0156 16.6896 10.1654 17.0513 10.4321 17.3179C10.6987 17.5846 11.0604 17.7344 11.4375 17.7344H16.3125C16.6896 17.7344 17.0513 17.5846 17.3179 17.3179C17.5846 17.0513 17.7344 16.6896 17.7344 16.3125V11.4375C17.7344 11.0604 17.5846 10.6987 17.3179 10.4321C17.0513 10.1654 16.6896 10.0156 16.3125 10.0156ZM16.5156 16.3125C16.5156 16.3664 16.4942 16.418 16.4561 16.4561C16.418 16.4942 16.3664 16.5156 16.3125 16.5156H11.4375C11.3836 16.5156 11.332 16.4942 11.2939 16.4561C11.2558 16.418 11.2344 16.3664 11.2344 16.3125V11.4375C11.2344 11.3836 11.2558 11.332 11.2939 11.2939C11.332 11.2558 11.3836 11.2344 11.4375 11.2344H16.3125C16.3664 11.2344 16.418 11.2558 16.4561 11.2939C16.4942 11.332 16.5156 11.3836 16.5156 11.4375V16.3125Z" fill="#727272"/>
</svg>
