<svg width="26" height="26" viewBox="0 0 26 26" fill="none" xmlns="http://www.w3.org/2000/svg">
<path d="M23.5625 4.875H17.0625C16.2005 4.875 15.3739 5.21741 14.7644 5.8269C14.1549 6.4364 13.8125 7.26305 13.8125 8.125V17.0351C13.8153 17.2448 13.7386 17.4477 13.5979 17.6032C13.4571 17.7586 13.2628 17.855 13.0538 17.873C12.9427 17.8803 12.8312 17.8648 12.7263 17.8273C12.6215 17.7898 12.5254 17.7311 12.4442 17.6549C12.3629 17.5787 12.2982 17.4866 12.2541 17.3844C12.2099 17.2821 12.1873 17.1719 12.1875 17.0605V8.125C12.1875 7.26305 11.8451 6.4364 11.2356 5.8269C10.6261 5.21741 9.79945 4.875 8.9375 4.875H2.4375C2.22201 4.875 2.01535 4.9606 1.86298 5.11298C1.7106 5.26535 1.625 5.47201 1.625 5.6875V20.3125C1.625 20.528 1.7106 20.7347 1.86298 20.887C2.01535 21.0394 2.22201 21.125 2.4375 21.125H9.75C10.3954 21.125 11.0145 21.381 11.4714 21.8368C11.9284 22.2926 12.1859 22.911 12.1875 23.5564C12.1842 23.7223 12.2325 23.8851 12.3256 24.0224C12.4188 24.1598 12.5522 24.2648 12.7075 24.3232C12.8308 24.3708 12.9639 24.3876 13.0951 24.3721C13.2264 24.3566 13.3519 24.3094 13.4607 24.2344C13.5696 24.1595 13.6585 24.0591 13.7198 23.942C13.7811 23.8249 13.8129 23.6947 13.8125 23.5625C13.8125 22.916 14.0693 22.296 14.5264 21.8389C14.9835 21.3818 15.6035 21.125 16.25 21.125H23.5625C23.778 21.125 23.9847 21.0394 24.137 20.887C24.2894 20.7347 24.375 20.528 24.375 20.3125V5.6875C24.375 5.47201 24.2894 5.26535 24.137 5.11298C23.9847 4.9606 23.778 4.875 23.5625 4.875ZM21.125 17.0625H17.0899C16.8802 17.0653 16.6773 16.9886 16.5218 16.8479C16.3664 16.7071 16.27 16.5128 16.252 16.3038C16.2447 16.1927 16.2602 16.0812 16.2977 15.9763C16.3352 15.8715 16.3939 15.7754 16.4701 15.6942C16.5463 15.6129 16.6384 15.5482 16.7406 15.5041C16.8429 15.4599 16.9531 15.4373 17.0645 15.4375H21.0996C21.3093 15.4347 21.5123 15.5114 21.6677 15.6521C21.8232 15.7929 21.9196 15.9872 21.9375 16.1962C21.9449 16.3073 21.9293 16.4188 21.8918 16.5237C21.8543 16.6285 21.7956 16.7246 21.7194 16.8058C21.6432 16.8871 21.5511 16.9518 21.4489 16.9959C21.3466 17.0401 21.2364 17.0627 21.125 17.0625ZM21.125 13.8125H17.0899C16.8802 13.8153 16.6773 13.7386 16.5218 13.5979C16.3664 13.4571 16.27 13.2628 16.252 13.0538C16.2447 12.9427 16.2602 12.8312 16.2977 12.7263C16.3352 12.6215 16.3939 12.5254 16.4701 12.4442C16.5463 12.3629 16.6384 12.2982 16.7406 12.2541C16.8429 12.2099 16.9531 12.1873 17.0645 12.1875H21.0996C21.3093 12.1847 21.5123 12.2614 21.6677 12.4021C21.8232 12.5429 21.9196 12.7372 21.9375 12.9462C21.9449 13.0573 21.9293 13.1688 21.8918 13.2737C21.8543 13.3785 21.7956 13.4746 21.7194 13.5558C21.6432 13.6371 21.5511 13.7018 21.4489 13.7459C21.3466 13.7901 21.2364 13.8127 21.125 13.8125ZM21.125 10.5625H17.0899C16.8799 10.5658 16.6764 10.4894 16.5205 10.3486C16.3646 10.2078 16.268 10.0131 16.25 9.80383C16.2426 9.69269 16.2582 9.58122 16.2957 9.47634C16.3332 9.37147 16.3919 9.27542 16.4681 9.19418C16.5443 9.11294 16.6364 9.04823 16.7386 9.00407C16.8409 8.95991 16.9511 8.93726 17.0625 8.9375H21.0976C21.3076 8.93416 21.5111 9.0106 21.667 9.1514C21.8229 9.2922 21.9195 9.48689 21.9375 9.69617C21.9449 9.80731 21.9293 9.91878 21.8918 10.0237C21.8543 10.1285 21.7956 10.2246 21.7194 10.3058C21.6432 10.3871 21.5511 10.4518 21.4489 10.4959C21.3466 10.5401 21.2364 10.5627 21.125 10.5625Z" fill="#177A9C"/>
</svg>
