<svg width="24" height="20" viewBox="0 0 24 20" fill="none" xmlns="http://www.w3.org/2000/svg">
<path d="M22.5625 0.078125H15.25C14.6022 0.0786037 13.965 0.242127 13.397 0.553623C12.829 0.86512 12.3486 1.31457 12 1.86055C11.6514 1.31457 11.171 0.86512 10.603 0.553623C10.035 0.242127 9.39778 0.0786037 8.75 0.078125H1.4375C1.27588 0.078125 1.12089 0.142327 1.00661 0.256607C0.892327 0.370887 0.828125 0.525884 0.828125 0.6875V15.3125C0.828125 15.4741 0.892327 15.6291 1.00661 15.7434C1.12089 15.8577 1.27588 15.9219 1.4375 15.9219H8.75C9.45034 15.9219 10.122 16.2001 10.6172 16.6953C11.1124 17.1905 11.3906 17.8622 11.3906 18.5625C11.3906 18.7241 11.4548 18.8791 11.5691 18.9934C11.6834 19.1077 11.8384 19.1719 12 19.1719C12.1616 19.1719 12.3166 19.1077 12.4309 18.9934C12.5452 18.8791 12.6094 18.7241 12.6094 18.5625C12.6094 17.8622 12.8876 17.1905 13.3828 16.6953C13.878 16.2001 14.5497 15.9219 15.25 15.9219H22.5625C22.7241 15.9219 22.8791 15.8577 22.9934 15.7434C23.1077 15.6291 23.1719 15.4741 23.1719 15.3125V0.6875C23.1719 0.525884 23.1077 0.370887 22.9934 0.256607C22.8791 0.142327 22.7241 0.078125 22.5625 0.078125ZM8.75 14.7031H2.04688V1.29688H8.75C9.45034 1.29688 10.122 1.57508 10.6172 2.0703C11.1124 2.56551 11.3906 3.23716 11.3906 3.9375V15.7502C10.6763 15.0769 9.7316 14.7023 8.75 14.7031ZM21.9531 14.7031H15.25C14.2683 14.7027 13.3236 15.0777 12.6094 15.7513V3.9375C12.6094 3.23716 12.8876 2.56551 13.3828 2.0703C13.878 1.57508 14.5497 1.29688 15.25 1.29688H21.9531V14.7031ZM15.25 4.14062H19.3125C19.4741 4.14062 19.6291 4.20483 19.7434 4.31911C19.8577 4.43339 19.9219 4.58838 19.9219 4.75C19.9219 4.91162 19.8577 5.06661 19.7434 5.18089C19.6291 5.29517 19.4741 5.35938 19.3125 5.35938H15.25C15.0884 5.35938 14.9334 5.29517 14.8191 5.18089C14.7048 5.06661 14.6406 4.91162 14.6406 4.75C14.6406 4.58838 14.7048 4.43339 14.8191 4.31911C14.9334 4.20483 15.0884 4.14062 15.25 4.14062ZM19.9219 8C19.9219 8.16162 19.8577 8.31661 19.7434 8.43089C19.6291 8.54517 19.4741 8.60938 19.3125 8.60938H15.25C15.0884 8.60938 14.9334 8.54517 14.8191 8.43089C14.7048 8.31661 14.6406 8.16162 14.6406 8C14.6406 7.83838 14.7048 7.68339 14.8191 7.56911C14.9334 7.45483 15.0884 7.39062 15.25 7.39062H19.3125C19.4741 7.39062 19.6291 7.45483 19.7434 7.56911C19.8577 7.68339 19.9219 7.83838 19.9219 8ZM19.9219 11.25C19.9219 11.4116 19.8577 11.5666 19.7434 11.6809C19.6291 11.7952 19.4741 11.8594 19.3125 11.8594H15.25C15.0884 11.8594 14.9334 11.7952 14.8191 11.6809C14.7048 11.5666 14.6406 11.4116 14.6406 11.25C14.6406 11.0884 14.7048 10.9334 14.8191 10.8191C14.9334 10.7048 15.0884 10.6406 15.25 10.6406H19.3125C19.4741 10.6406 19.6291 10.7048 19.7434 10.8191C19.8577 10.9334 19.9219 11.0884 19.9219 11.25Z" fill="#727272"/>
</svg>
