<svg width="20" height="22" viewBox="0 0 20 22" fill="none" xmlns="http://www.w3.org/2000/svg">
<path d="M13.8593 20.75C13.8593 20.9116 13.7951 21.0666 13.6808 21.1809C13.5665 21.2952 13.4116 21.3594 13.2499 21.3594H6.74993C6.58832 21.3594 6.43332 21.2952 6.31904 21.1809C6.20476 21.0666 6.14056 20.9116 6.14056 20.75C6.14056 20.5884 6.20476 20.4334 6.31904 20.3191C6.43332 20.2048 6.58832 20.1406 6.74993 20.1406H13.2499C13.4116 20.1406 13.5665 20.2048 13.6808 20.3191C13.7951 20.4334 13.8593 20.5884 13.8593 20.75ZM19.3549 17.3984C19.2316 17.6154 19.0528 17.7956 18.8368 17.9206C18.6209 18.0456 18.3755 18.1107 18.126 18.1094H1.87493C1.625 18.1088 1.37962 18.0424 1.16352 17.9169C0.947426 17.7913 0.768248 17.611 0.644046 17.3941C0.519844 17.1772 0.455006 16.9314 0.456068 16.6815C0.457129 16.4315 0.524051 16.1863 0.65009 15.9705C1.22392 14.9812 2.07806 12.1923 2.07806 8.5625C2.07806 6.46149 2.91268 4.44653 4.39832 2.96089C5.88396 1.47525 7.89892 0.640625 9.99993 0.640625C12.1009 0.640625 14.1159 1.47525 15.6015 2.96089C17.0872 4.44653 17.9218 6.46149 17.9218 8.5625C17.9218 12.1913 18.777 14.9812 19.3518 15.9705C19.4792 16.1867 19.5467 16.433 19.5472 16.684C19.5477 16.935 19.4813 17.1816 19.3549 17.3984ZM18.2976 16.5859C17.5288 15.2656 16.7031 12.1862 16.7031 8.5625C16.7031 6.78472 15.9968 5.07975 14.7398 3.82267C13.4827 2.56559 11.7777 1.85937 9.99993 1.85937C8.22216 1.85937 6.51719 2.56559 5.26011 3.82267C4.00303 5.07975 3.29681 6.78472 3.29681 8.5625C3.29681 12.1873 2.47009 15.2656 1.70126 16.5859C1.68343 16.6168 1.67405 16.6518 1.67405 16.6875C1.67405 16.7232 1.68343 16.7582 1.70126 16.7891C1.71799 16.8202 1.74293 16.8461 1.77338 16.864C1.80382 16.8819 1.8386 16.8911 1.87392 16.8906H18.1249C18.1603 16.8911 18.195 16.8819 18.2255 16.864C18.2559 16.8461 18.2809 16.8202 18.2976 16.7891C18.3154 16.7582 18.3248 16.7232 18.3248 16.6875C18.3248 16.6518 18.3154 16.6168 18.2976 16.5859Z" fill="#727272"/>
</svg>
