<svg width="20" height="22" viewBox="0 0 20 22" fill="none" xmlns="http://www.w3.org/2000/svg">
<path d="M14.0613 20.75C14.0613 20.9655 13.9757 21.1722 13.8233 21.3245C13.671 21.4769 13.4643 21.5625 13.2488 21.5625H6.74882C6.53334 21.5625 6.32667 21.4769 6.1743 21.3245C6.02193 21.1722 5.93632 20.9655 5.93632 20.75C5.93632 20.5345 6.02193 20.3278 6.1743 20.1755C6.32667 20.0231 6.53334 19.9375 6.74882 19.9375H13.2488C13.4643 19.9375 13.671 20.0231 13.8233 20.1755C13.9757 20.3278 14.0613 20.5345 14.0613 20.75ZM19.5264 15.8689C18.9617 14.898 18.1238 12.1507 18.1238 8.5625C18.1238 6.40762 17.2678 4.34099 15.7441 2.81726C14.2203 1.29352 12.1537 0.4375 9.99882 0.4375C7.84394 0.4375 5.77731 1.29352 4.25358 2.81726C2.72985 4.34099 1.87382 6.40762 1.87382 8.5625C1.87382 12.1517 1.03492 14.898 0.471245 15.8689C0.327301 16.1157 0.250991 16.3962 0.25001 16.6819C0.249029 16.9677 0.323412 17.2486 0.465658 17.4964C0.607903 17.7443 0.812982 17.9502 1.06021 18.0935C1.30744 18.2367 1.58808 18.3123 1.87382 18.3125H18.1238C18.4095 18.3121 18.69 18.2364 18.9371 18.0931C19.1842 17.9497 19.3891 17.7438 19.5312 17.496C19.6734 17.2482 19.7476 16.9673 19.7466 16.6817C19.7456 16.396 19.6693 16.1157 19.5254 15.8689H19.5264Z" fill="#177A9C"/>
</svg>
