<svg width="26" height="26" viewBox="0 0 26 26" fill="none" xmlns="http://www.w3.org/2000/svg">
<path d="M17.4688 12.1875C17.4688 13.0713 17.2067 13.9353 16.7156 14.6702C16.2246 15.4051 15.5267 15.9779 14.7101 16.3161C13.8936 16.6543 12.995 16.7428 12.1282 16.5704C11.2613 16.398 10.4651 15.9724 9.84012 15.3474C9.21515 14.7224 8.78955 13.9262 8.61712 13.0593C8.44469 12.1925 8.53319 11.2939 8.87142 10.4774C9.20965 9.66083 9.78242 8.9629 10.5173 8.47187C11.2522 7.98084 12.1162 7.71875 13 7.71875C14.1848 7.72009 15.3206 8.19134 16.1584 9.0291C16.9962 9.86686 17.4674 11.0027 17.4688 12.1875ZM23.5625 13C23.5625 15.0891 22.943 17.1312 21.7824 18.8682C20.6218 20.6052 18.9721 21.959 17.0421 22.7585C15.1121 23.5579 12.9883 23.7671 10.9394 23.3595C8.89044 22.952 7.00838 21.946 5.53119 20.4688C4.054 18.9916 3.04802 17.1096 2.64046 15.0606C2.2329 13.0117 2.44208 10.888 3.24153 8.95791C4.04098 7.02786 5.3948 5.37822 7.13179 4.2176C8.86879 3.05698 10.9109 2.4375 13 2.4375C15.8004 2.44046 18.4853 3.55424 20.4656 5.53445C22.4458 7.51466 23.5595 10.1996 23.5625 13ZM21.9375 13C21.9362 11.797 21.6923 10.6067 21.2204 9.50011C20.7485 8.39356 20.0583 7.39354 19.1911 6.55985C18.3238 5.72617 17.2973 5.07595 16.173 4.64807C15.0487 4.22019 13.8497 4.02345 12.6476 4.06961C7.86399 4.25445 4.0493 8.23875 4.0625 13.0254C4.06709 15.2044 4.87076 17.3061 6.32125 18.9323C6.91196 18.0755 7.66233 17.3407 8.53125 16.768C8.60534 16.719 8.69341 16.6957 8.782 16.7016C8.87059 16.7075 8.95482 16.7422 9.0218 16.8005C10.126 17.7555 11.5371 18.2811 12.997 18.2811C14.4569 18.2811 15.8679 17.7555 16.9721 16.8005C17.0391 16.7422 17.1233 16.7075 17.2119 16.7016C17.3005 16.6957 17.3886 16.719 17.4627 16.768C18.3327 17.3403 19.0841 18.0752 19.6757 18.9323C21.1334 17.3002 21.9386 15.1883 21.9375 13Z" fill="#177A9C"/>
</svg>
