<svg width="22" height="22" viewBox="0 0 22 22" fill="none" xmlns="http://www.w3.org/2000/svg">
<path d="M11 0.640625C8.95111 0.640625 6.94823 1.24819 5.24464 2.38649C3.54105 3.5248 2.21327 5.14271 1.42919 7.03564C0.645113 8.92857 0.439963 11.0115 0.839682 13.021C1.2394 15.0305 2.22604 16.8764 3.67482 18.3252C5.1236 19.774 6.96947 20.7606 8.97899 21.1603C10.9885 21.56 13.0714 21.3549 14.9644 20.5708C16.8573 19.7867 18.4752 18.4589 19.6135 16.7554C20.7518 15.0518 21.3594 13.0489 21.3594 11C21.3562 8.25351 20.2637 5.62044 18.3216 3.67838C16.3796 1.73632 13.7465 0.64385 11 0.640625ZM5.25563 18.1094C5.85159 17.1184 6.69378 16.2984 7.70035 15.7292C8.70692 15.16 9.84363 14.8608 11 14.8608C12.1564 14.8608 13.2931 15.16 14.2997 15.7292C15.3062 16.2984 16.1484 17.1184 16.7444 18.1094C15.1197 19.4268 13.0917 20.1457 11 20.1457C8.90835 20.1457 6.88026 19.4268 5.25563 18.1094ZM7.54688 10.1875C7.54688 9.50454 7.7494 8.83691 8.12884 8.26905C8.50827 7.70118 9.04757 7.25859 9.67855 6.99723C10.3095 6.73587 11.0038 6.66749 11.6737 6.80073C12.3435 6.93396 12.9588 7.26284 13.4417 7.74577C13.9247 8.2287 14.2535 8.84399 14.3868 9.51383C14.52 10.1837 14.4516 10.878 14.1903 11.509C13.9289 12.1399 13.4863 12.6792 12.9185 13.0587C12.3506 13.4381 11.683 13.6406 11 13.6406C10.0842 13.6406 9.20586 13.2768 8.55828 12.6292C7.91069 11.9816 7.54688 11.1033 7.54688 10.1875ZM17.6534 17.2603C16.6959 15.7715 15.2648 14.6488 13.5909 14.0733C14.4255 13.5173 15.0592 12.7076 15.3981 11.7637C15.737 10.8198 15.7631 9.79196 15.4727 8.83206C15.1823 7.87216 14.5907 7.03119 13.7854 6.43349C12.9801 5.83578 12.0039 5.51307 11.001 5.51307C9.99815 5.51307 9.0219 5.83578 8.21661 6.43349C7.41132 7.03119 6.81973 7.87216 6.52932 8.83206C6.23891 9.79196 6.26508 10.8198 6.60398 11.7637C6.94288 12.7076 7.5765 13.5173 8.41118 14.0733C6.73729 14.6488 5.30614 15.7715 4.34868 17.2603C3.12467 15.9614 2.3077 14.3326 1.99856 12.5748C1.68942 10.8171 1.90163 9.00724 2.60902 7.36866C3.3164 5.73009 4.48801 4.33445 5.97929 3.35393C7.47057 2.37342 9.21627 1.85093 11.001 1.85093C12.7858 1.85093 14.5315 2.37342 16.0227 3.35393C17.514 4.33445 18.6856 5.73009 19.393 7.36866C20.1004 9.00724 20.3126 10.8171 20.0035 12.5748C19.6943 14.3326 18.8774 15.9614 17.6534 17.2603Z" fill="#727272"/>
</svg>
