<svg width="28" height="28" viewBox="0 0 28 28" fill="none" xmlns="http://www.w3.org/2000/svg">
<g filter="url(#filter0_d_261_223)">
<path d="M13.7527 2H13.7473C7.82003 2 3 6.82137 3 12.75C3 15.1016 3.75788 17.2811 5.04653 19.0508L3.70681 23.0445L7.83884 21.7236C9.53869 22.8496 11.5664 23.5 13.7527 23.5C19.68 23.5 24.5 18.6773 24.5 12.75C24.5 6.82272 19.68 2 13.7527 2Z" fill="#4CAF50"/>
<path d="M7.75218 22.3794C9.49603 23.4717 11.5491 24.0983 13.7527 24.0983C20.0106 24.0983 25.0983 19.0075 25.0983 12.75C25.0983 6.49247 20.0106 1.40167 13.7527 1.40167H13.7473C7.48944 1.40167 2.40167 6.49107 2.40167 12.75C2.40167 15.1204 3.13166 17.3268 4.38271 19.1484L3.13955 22.8542L2.76387 23.9741L3.889 23.6144L7.75218 22.3794Z" stroke="white" stroke-width="1.19666"/>
</g>
<path d="M20.0075 17.1796C19.7482 17.9119 18.7188 18.5193 17.8978 18.6967C17.3361 18.8163 16.6024 18.9117 14.1326 17.8877C10.9735 16.5789 8.93903 13.3687 8.78047 13.1604C8.62863 12.9521 7.50391 11.4606 7.50391 9.91795C7.50391 8.37533 8.28731 7.62417 8.60309 7.30167C8.86244 7.03695 9.29109 6.91602 9.70228 6.91602C9.83531 6.91602 9.95491 6.92273 10.0624 6.92811C10.3782 6.94155 10.5368 6.96036 10.745 7.45889C11.0044 8.08373 11.6359 9.62636 11.7112 9.78492C11.7878 9.94349 11.8644 10.1585 11.7569 10.3668C11.6561 10.5818 11.5674 10.6772 11.4088 10.8599C11.2503 11.0427 11.0998 11.1824 10.9412 11.3786C10.7961 11.5493 10.6322 11.732 10.8149 12.0478C10.9977 12.3569 11.6292 13.3875 12.5591 14.2153C13.7591 15.2835 14.7319 15.6249 15.08 15.77C15.3393 15.8775 15.6484 15.852 15.8378 15.6504C16.0784 15.391 16.3753 14.961 16.6777 14.5378C16.8927 14.2341 17.1641 14.1965 17.449 14.304C17.7393 14.4047 19.2752 15.164 19.5909 15.3212C19.9067 15.4797 20.115 15.555 20.1916 15.688C20.2668 15.821 20.2668 16.4459 20.0075 17.1796Z" fill="white"/>
<defs>
<filter id="filter0_d_261_223" x="0.208164" y="0.00496078" width="27.0837" height="27.2927" filterUnits="userSpaceOnUse" color-interpolation-filters="sRGB">
<feFlood flood-opacity="0" result="BackgroundImageFix"/>
<feColorMatrix in="SourceAlpha" type="matrix" values="0 0 0 0 0 0 0 0 0 0 0 0 0 0 0 0 0 0 127 0" result="hardAlpha"/>
<feOffset dy="0.797774"/>
<feGaussianBlur stdDeviation="0.797774"/>
<feComposite in2="hardAlpha" operator="out"/>
<feColorMatrix type="matrix" values="0 0 0 0 0 0 0 0 0 0 0 0 0 0 0 0 0 0 0.15 0"/>
<feBlend mode="normal" in2="BackgroundImageFix" result="effect1_dropShadow_261_223"/>
<feBlend mode="normal" in="SourceGraphic" in2="effect1_dropShadow_261_223" result="shape"/>
</filter>
</defs>
</svg>
